PathFileType	4	(X/Y/Z)	path1_02_0-1346.trc
DataRate	CameraRate	NumFrames	NumMarkers	Units	OrigDataRate	OrigDataStartFrame	OrigNumFrames
30	30	5	22	m	30	1177	1346
Frame#	Time	Hip			RHip			RKnee			RAnkle			RBigToe			RSmallToe			RHeel			LHip			LKnee			LAnkle			LBigToe			LSmallToe			LHeel			Neck			Head			Nose			RShoulder			RElbow			RWrist			LShoulder			LElbow			LWrist		
		X1	Y1	Z1	X2	Y2	Z2	X3	Y3	Z3	X4	Y4	Z4	X5	Y5	Z5	X6	Y6	Z6	X7	Y7	Z7	X8	Y8	Z8	X9	Y9	Z9	X10	Y10	Z10	X11	Y11	Z11	X12	Y12	Z12	X13	Y13	Z13	X14	Y14	Z14	X15	Y15	Z15	X16	Y16	Z16	X17	Y17	Z17	X18	Y18	Z18	X19	Y19	Z19	X20	Y20	Z20	X21	Y21	Z21	X22	Y22	Z22
1178	39.266666666666666	3.5421979043416956	0.780344041355982	0.25860788097411713	3.56275549756746	0.7364259287813456	0.3356285919043299	3.5673422084141824	0.40807035679684994	0.27344115812546965	3.4946124409674915	0.05467292546331745	0.3323787859341041	3.7043459607799436	-0.0048540719444432525	0.3216088522096846	3.668445920836588	-0.023171491683651735	0.36506660000902447	3.455398636094416	-0.009638261962159101	0.3179945925985325	3.545140714549081	0.7358678558641083	0.17700435779189558	3.554771493396306	0.4065405423848883	0.23011436459812623	3.5339824950690994	0.04965887111335878	0.1517620729410693	3.6991830321228387	-0.014288119506598885	0.18662514172692973	3.6748085170251468	-0.03025292445412771	0.14983953941412956	3.496400718957342	-0.01563547506211335	0.16098717517316422	3.572932542183601	1.4149190457084455	0.30238272040477054	3.4361510521203007	1.6055326078151568	0.23726623937035754	3.565304011328553	1.4469719940228527	0.2302876878996899	3.56062652562126	1.3072792174625034	0.35032568623959165	3.5727035143036985	1.0058367873654577	0.374815419294678	3.6433966608749415	0.8024572439707915	0.4188031214234712	3.5497458026995496	1.2986184806324113	0.13323165181316332	3.519833294521969	0.9863932082661728	0.02950807237914537	3.6702729848163282	0.7859096559293192	0.06248540250795315
1179	39.3	3.54306274510674	0.7804061697861462	0.2590719783314699	3.563592955635233	0.7362345549241557	0.33569993575119567	3.5672433039409945	0.4082522458021186	0.27338859643525665	3.4944461168511434	0.05491448312356052	0.3321406590381848	3.704540142417763	-0.004677183797312547	0.3217480930955735	3.6683009124812	-0.02243632148202303	0.36511695991642046	3.455382492139765	-0.009551947151760679	0.3178989909903379	3.5465621716328988	0.7356501201795019	0.1772800950399156	3.5556419599973568	0.40672229798913134	0.23063939504217779	3.534305304790435	0.04992805059594527	0.15146348000452517	3.6993917529414517	-0.014533465813334229	0.1868996641730144	3.6748884345729764	-0.030434062269903476	0.14988120889094556	3.49644435370485	-0.0157155131009064	0.1611771174606414	3.5741415359485407	1.4149421371220585	0.30261541416646504	3.436619923541139	1.6058428331851422	0.2372070151247086	3.563839826727856	1.4477719577302333	0.23069567284591913	3.562467575283166	1.3072098747946286	0.3498114044549393	3.5734674372849513	1.005698530399443	0.3743766106695093	3.645457253851328	0.8014338260365728	0.41640892387105805	3.549771526022126	1.298820774138066	0.1337113065796191	3.517504986840279	0.9871363261837114	0.028885497047349457	3.671268170767098	0.7859895729448273	0.06585027472076295
1180	39.333333333333336	3.5436597507810883	0.7804912159842834	0.2594893090115311	3.56386501159052	0.7366583011695501	0.3359859536322558	3.566971895415986	0.4085135975270696	0.2731597433134565	3.4943369904691695	0.05511779650491624	0.3320681861592112	3.704732283426506	-0.004673162797570457	0.32186575570024256	3.667950379815842	-0.021805048530525922	0.365422478116726	3.4555016330374935	-0.009584598158462418	0.31816808910335553	3.5474108237729642	0.735820396226514	0.17769008605213366	3.5563955111559067	0.40694258180404186	0.2308348668939294	3.53464813702703	0.0501631279653128	0.151075680065381	3.699611810797221	-0.014871268678009303	0.1870231163285068	3.674799487902841	-0.030697654763215988	0.15011244759208836	3.4967330148129223	-0.015681673473538396	0.16120696980377844	3.575196303728773	1.4147711025568004	0.3026861844158735	3.4372704814286807	1.6061565282746428	0.2372363025880804	3.561225901995177	1.4485345996809638	0.23171786652788304	3.564025589929838	1.3073532238217223	0.3493807459018821	3.5737755368491104	1.0057201121972636	0.3743369328055113	3.6505371543908627	0.7989893196350908	0.408207524206307	3.549769901871007	1.2987437725938191	0.1338617412216319	3.5179792357993596	0.9886594202667089	0.03278025922163769	3.672067308063999	0.7857919880417713	0.07201185225492329
1181	39.36666666666667	3.544001894110735	0.7805879071159989	0.25992382228113975	3.56380784258181	0.7374905646169624	0.3364826293282948	3.5666690355564996	0.4089250197422765	0.2727614292268275	3.4944000915922384	0.05531429355252369	0.33216309830551716	3.704936729621657	-0.004784901617418285	0.32182164686112885	3.6674567279093204	-0.021362168389227196	0.3658907556092718	3.4557706304994458	-0.009663603430458268	0.3187164576105165	3.547675512923152	0.73626022869096	0.1783120030619071	3.556879078227335	0.40719071757666925	0.23080346756376102	3.53495482202843	0.05028163061116517	0.15075706669457392	3.699833694216012	-0.01520527027604479	0.18690777883136697	3.6745362844911655	-0.03104609367145338	0.15049544257116998	3.4971675237233466	-0.015526725334948116	0.16115881919349065	3.5760886361132482	1.4145022523762578	0.3026015901749332	3.43827403452593	1.6064402334904893	0.2372772534206167	3.558201741185501	1.4492852023051197	0.23293504044800306	3.565352302948995	1.3076458516899365	0.3491738514831807	3.5737618477415927	1.006053753351402	0.3746471799510592	3.6561604447670293	0.7962700248243009	0.3984224488042069	3.549781563294969	1.2985016852214297	0.1337375946919394	3.52151540963106	0.9906691416304486	0.04122333634339107	3.67252872376918	0.78516946070434	0.08055774697966625
1182	39.4	3.5441636999761403	0.7806726868550562	0.26043972608266436	3.563607389046652	0.7384308389155004	0.33709788148425623	3.566382231323245	0.4094866747764254	0.2721905796348085	3.494670443330072	0.05554566375559652	0.3323643102919666	3.7051367959290187	-0.00492661875022475	0.32156664417057185	3.666954965232198	-0.021054063154168336	0.3663641071218081	3.456122945517092	-0.009655126998951297	0.3193789363036788	3.547506369898158	0.7367726170467525	0.17917941508733973	3.5569835656856625	0.4074411285745632	0.2306447629570682	3.5351973856468604	0.05027030456618269	0.1506172337951428	3.7000569010092588	-0.015445457465354261	0.18651383962010776	3.674169139436657	-0.03151706866194067	0.15099336998272878	3.497571716473372	-0.015294692911503328	0.16118097759772623	3.5768818577964985	1.4142876115023368	0.30231258918694853	3.4397289354464475	1.6066639480300628	0.23725910377016912	3.555801251260288	1.4500579883630165	0.23401570142843434	3.566475417676113	1.308070286891668	0.349217885691869	3.573554662198169	1.0068337651897217	0.3751484113851714	3.6603023226796636	0.7942550392109347	0.39043317043368814	3.549890482280836	1.2982911301539701	0.13352957965179754	3.52842705919482	0.9928402175457476	0.05409250181494925	3.6725237777274353	0.7841156460903547	0.0909521193303349
